<svg width="35" height="35" viewBox="0 0 35 35" fill="none" xmlns="http://www.w3.org/2000/svg">
<g clip-path="url(#clip0)">
<path d="M11.4506 24.6836C11.3417 24.5746 11.1905 24.5118 11.0364 24.5118C10.8823 24.5118 10.7311 24.5745 10.6221 24.6836C10.5131 24.7925 10.4504 24.9437 10.4504 25.0978C10.4504 25.2519 10.5131 25.4031 10.6221 25.512C10.7311 25.621 10.8823 25.6837 11.0364 25.6837C11.1905 25.6837 11.3417 25.6211 11.4506 25.512C11.5596 25.4031 11.6223 25.2519 11.6223 25.0978C11.6223 24.9437 11.5596 24.7925 11.4506 24.6836Z" fill="#954953"/>
<path d="M31.0178 25.3314L26.7817 21.0954C26.1495 20.4632 25.309 20.115 24.4148 20.115C23.5207 20.115 22.6802 20.4632 22.048 21.0954L20.5708 22.5726C20.5707 22.5726 20.5707 22.5727 20.5706 22.5727C20.5706 22.5728 20.5705 22.5728 20.5704 22.5729L19.9803 23.1629L12.8317 16.0143L14.8993 13.9468C16.2044 12.6417 16.2044 10.5181 14.8993 9.213L10.6669 4.98066C9.36187 3.67572 7.23832 3.67572 5.9332 4.98066L4.81681 6.09699C1.06464 9.84921 1.06464 15.9545 4.81681 19.7067L8.93314 23.8231C9.16195 24.0518 9.53296 24.0518 9.76183 23.8231C9.99064 23.5943 9.99064 23.2232 9.76183 22.9944L5.6455 18.878C2.61292 15.8455 2.37134 11.0628 4.92046 7.75115L9.37013 12.2009C9.48457 12.3152 9.63451 12.3725 9.78445 12.3725C9.93439 12.3725 10.0844 12.3152 10.1988 12.2009C10.4276 11.9721 10.4276 11.6011 10.1988 11.3722L5.69888 6.87224L6.76183 5.80929C7.61003 4.96121 8.99009 4.96109 9.8383 5.80929L14.0706 10.0416C14.9188 10.8898 14.9188 12.2699 14.0706 13.1181L11.5887 15.6C11.4789 15.7099 11.4171 15.8589 11.4171 16.0143C11.4171 16.1697 11.4789 16.3187 11.5887 16.4286L19.566 24.4059C19.7949 24.6348 20.1659 24.6347 20.3947 24.4059L20.9849 23.8157L28.2476 31.0784C26.7775 32.2132 24.9844 32.8284 23.0965 32.8284C20.839 32.8284 18.7167 31.9493 17.1203 30.3529L12.9454 26.178C12.7167 25.9493 12.3456 25.9493 12.1168 26.178C11.888 26.4068 11.888 26.7778 12.1168 27.0067L16.2917 31.1816C18.1093 32.9993 20.526 34.0003 23.0965 34.0003C25.6671 34.0003 28.0838 32.9993 29.9014 31.1816L31.0178 30.0652C31.65 29.4331 31.9982 28.5925 31.9982 27.6983C31.9982 26.8043 31.65 25.9637 31.0178 25.3314ZM30.1891 29.2365L29.1261 30.2995L21.8136 22.987L22.8766 21.924C23.2875 21.5131 23.8338 21.2868 24.4148 21.2868C24.9959 21.2868 25.5422 21.5131 25.953 21.924L30.1891 26.1601C30.6 26.571 30.8263 27.1173 30.8263 27.6983C30.8263 28.2794 30.6001 28.8257 30.1891 29.2365Z" fill="#954953"/>
<path d="M11.621 12.7949C11.5121 12.6853 11.3609 12.6232 11.2068 12.6232C11.0527 12.6232 10.9015 12.6853 10.7925 12.7949C10.6835 12.9039 10.6208 13.0545 10.6208 13.2092C10.6208 13.3633 10.6835 13.5144 10.7925 13.6234C10.9015 13.7324 11.0527 13.7951 11.2068 13.7951C11.3609 13.7951 11.5121 13.7324 11.621 13.6234C11.73 13.5144 11.7927 13.3633 11.7927 13.2092C11.7927 13.0551 11.73 12.9039 11.621 12.7949Z" fill="#954953"/>
</g>
<defs>
<clipPath id="clip0">
<rect x="2" y="4" width="30" height="30" fill="white"/>
</clipPath>
</defs>
</svg>
