<svg width="156" height="156" viewBox="0 0 156 156" fill="none" xmlns="http://www.w3.org/2000/svg">
<path d="M101.525 103.092C112.301 103.092 121.036 94.2017 121.036 83.2344C121.036 72.2672 112.301 63.3765 101.525 63.3765C90.7487 63.3765 82.0131 72.2672 82.0131 83.2344C82.0131 94.2017 90.7487 103.092 101.525 103.092Z" fill="#F9F9F9"/>
<path d="M12.9846 41.8049H48.0408C54.8304 41.8049 61.3419 44.55 66.1429 49.4362C70.9439 54.3224 73.641 60.9496 73.641 67.8597V79.8073C73.641 86.6117 70.9852 93.1373 66.2577 97.9487C61.5303 102.76 55.1185 105.463 48.4329 105.463H17.0438C12.5235 105.463 8.18833 103.636 4.992 100.382C1.79568 97.1294 0 92.7173 0 88.1167L0 55.0201C0 51.5152 1.36802 48.1539 3.80311 45.6756C6.2382 43.1972 9.54089 41.8049 12.9846 41.8049Z" fill="#F9F9F9"/>
<path d="M135.935 106.496C143.42 98.9719 148.822 89.5717 151.596 79.2438C154.37 68.9159 154.419 58.026 151.736 47.673C149.054 37.3201 143.735 27.8705 136.318 20.278C128.9 12.6855 119.646 7.21872 109.489 4.42947C99.3323 1.64023 88.6323 1.62719 78.4689 4.39168C68.3055 7.15617 59.0385 12.6003 51.6031 20.1748C44.1677 27.7492 38.8271 37.1858 36.1203 47.5322C33.4135 57.8786 33.4362 68.7686 36.1862 79.1032L34.1105 79.5961L45.9881 131.236C46.8378 134.847 49.0545 137.971 52.1557 139.927C55.257 141.883 58.9918 142.514 62.5476 141.682L78.5535 137.879L83.489 153.042L131.322 136.87C134.781 135.685 137.64 133.159 139.277 129.84C140.914 126.521 141.196 122.678 140.063 119.148L135.935 106.496Z" stroke="#F9F9F9" stroke-width="2" stroke-miterlimit="10"/>
<path d="M50.2549 55.6539V73.6341H81.6671C83.4269 69.7804 86.232 66.5187 89.7521 64.2332C93.2722 61.9476 97.3607 60.7334 101.536 60.7334C105.711 60.7334 109.8 61.9476 113.32 64.2332C116.84 66.5187 119.645 69.7804 121.405 73.6341H152.817V55.6539H50.2549Z" fill="#F9F9F9"/>
</svg>
